<?xml version="1.0" encoding="iso-8859-1"?>
<!-- Generator: Adobe Illustrator 19.0.0, SVG Export Plug-In . SVG Version: 6.00 Build 0)  -->
<svg version="1.1" id="Capa_1" xmlns="http://www.w3.org/2000/svg" xmlns:xlink="http://www.w3.org/1999/xlink" x="0px" y="0px"
	 viewBox="0 0 449.77 449.77" style="enable-background:new 0 0 449.77 449.77;" xml:space="preserve">
<g>
	<g>
		<path d="M449.389,5.538c-0.078-0.298-0.171-0.592-0.28-0.88c-0.384-0.89-0.926-1.704-1.6-2.4c-0.695-0.676-1.508-1.219-2.4-1.6
			c-0.296-0.128-0.592-0.184-0.888-0.28c-0.604-0.195-1.23-0.316-1.864-0.36c-0.338-0.024-0.678-0.024-1.016,0
			c-0.62,0.045-1.232,0.163-1.824,0.352c-0.321,0.086-0.637,0.193-0.944,0.32c-0.152,0.064-0.312,0.08-0.456,0.152L4.253,231.098
			c-3.902,2.072-5.386,6.915-3.314,10.818c1.127,2.122,3.148,3.626,5.505,4.094l164.624,32.736l32.712,164.592
			c0.661,3.316,3.335,5.859,6.68,6.352c0.387,0.05,0.777,0.077,1.168,0.08c2.959-0.001,5.676-1.635,7.064-4.248L448.917,11.65
			c0.08-0.144,0.088-0.304,0.152-0.448c0.13-0.313,0.239-0.633,0.328-0.96c0.188-0.59,0.306-1.199,0.352-1.816
			c0.024-0.338,0.024-0.678,0-1.016C449.705,6.774,449.584,6.145,449.389,5.538z M31.581,234.658L398.453,39.986l-223.2,223.2
			L31.581,234.658z M215.093,418.178l-28.56-143.648l223.2-223.2L215.093,418.178z"/>
	</g>
</g>
<g>
</g>
<g>
</g>
<g>
</g>
<g>
</g>
<g>
</g>
<g>
</g>
<g>
</g>
<g>
</g>
<g>
</g>
<g>
</g>
<g>
</g>
<g>
</g>
<g>
</g>
<g>
</g>
<g>
</g>
</svg>
